%TF.GenerationSoftware,KiCad,Pcbnew,7.0.8*%
%TF.CreationDate,2024-04-14T12:45:35-04:00*%
%TF.ProjectId,tv desecrator,74762064-6573-4656-9372-61746f722e6b,rev?*%
%TF.SameCoordinates,Original*%
%TF.FileFunction,Paste,Top*%
%TF.FilePolarity,Positive*%
%FSLAX46Y46*%
G04 Gerber Fmt 4.6, Leading zero omitted, Abs format (unit mm)*
G04 Created by KiCad (PCBNEW 7.0.8) date 2024-04-14 12:45:35*
%MOMM*%
%LPD*%
G01*
G04 APERTURE LIST*
G04 Aperture macros list*
%AMRoundRect*
0 Rectangle with rounded corners*
0 $1 Rounding radius*
0 $2 $3 $4 $5 $6 $7 $8 $9 X,Y pos of 4 corners*
0 Add a 4 corners polygon primitive as box body*
4,1,4,$2,$3,$4,$5,$6,$7,$8,$9,$2,$3,0*
0 Add four circle primitives for the rounded corners*
1,1,$1+$1,$2,$3*
1,1,$1+$1,$4,$5*
1,1,$1+$1,$6,$7*
1,1,$1+$1,$8,$9*
0 Add four rect primitives between the rounded corners*
20,1,$1+$1,$2,$3,$4,$5,0*
20,1,$1+$1,$4,$5,$6,$7,0*
20,1,$1+$1,$6,$7,$8,$9,0*
20,1,$1+$1,$8,$9,$2,$3,0*%
G04 Aperture macros list end*
%ADD10RoundRect,0.225000X-0.250000X0.225000X-0.250000X-0.225000X0.250000X-0.225000X0.250000X0.225000X0*%
%ADD11RoundRect,0.250000X-0.325000X-0.650000X0.325000X-0.650000X0.325000X0.650000X-0.325000X0.650000X0*%
%ADD12R,0.400000X0.650000*%
%ADD13RoundRect,0.200000X0.200000X0.275000X-0.200000X0.275000X-0.200000X-0.275000X0.200000X-0.275000X0*%
%ADD14RoundRect,0.250000X0.650000X-0.325000X0.650000X0.325000X-0.650000X0.325000X-0.650000X-0.325000X0*%
%ADD15RoundRect,0.100000X-0.100000X0.637500X-0.100000X-0.637500X0.100000X-0.637500X0.100000X0.637500X0*%
%ADD16R,0.750000X0.250000*%
%ADD17R,2.184400X0.558800*%
%ADD18RoundRect,0.200000X-0.275000X0.200000X-0.275000X-0.200000X0.275000X-0.200000X0.275000X0.200000X0*%
%ADD19RoundRect,0.200000X-0.200000X-0.275000X0.200000X-0.275000X0.200000X0.275000X-0.200000X0.275000X0*%
%ADD20RoundRect,0.225000X-0.225000X-0.250000X0.225000X-0.250000X0.225000X0.250000X-0.225000X0.250000X0*%
%ADD21R,1.500000X2.000000*%
%ADD22R,3.800000X2.000000*%
%ADD23RoundRect,0.218750X0.256250X-0.218750X0.256250X0.218750X-0.256250X0.218750X-0.256250X-0.218750X0*%
%ADD24RoundRect,0.200000X0.275000X-0.200000X0.275000X0.200000X-0.275000X0.200000X-0.275000X-0.200000X0*%
%ADD25RoundRect,0.150000X-0.150000X0.512500X-0.150000X-0.512500X0.150000X-0.512500X0.150000X0.512500X0*%
%ADD26RoundRect,0.150000X-0.512500X-0.150000X0.512500X-0.150000X0.512500X0.150000X-0.512500X0.150000X0*%
%ADD27RoundRect,0.250000X0.625000X-0.375000X0.625000X0.375000X-0.625000X0.375000X-0.625000X-0.375000X0*%
%ADD28R,0.650000X0.400000*%
%ADD29RoundRect,0.225000X0.250000X-0.225000X0.250000X0.225000X-0.250000X0.225000X-0.250000X-0.225000X0*%
%ADD30R,1.200000X1.200000*%
%ADD31R,1.600000X1.500000*%
%ADD32RoundRect,0.225000X0.225000X0.250000X-0.225000X0.250000X-0.225000X-0.250000X0.225000X-0.250000X0*%
%ADD33RoundRect,0.218750X-0.256250X0.218750X-0.256250X-0.218750X0.256250X-0.218750X0.256250X0.218750X0*%
G04 APERTURE END LIST*
D10*
%TO.C,CA3*%
X47828200Y-25501000D03*
X47828200Y-27051000D03*
%TD*%
D11*
%TO.C,CB2*%
X57959200Y-36068000D03*
X60909200Y-36068000D03*
%TD*%
D12*
%TO.C,U6*%
X55382400Y-53985200D03*
X56032400Y-53985200D03*
X56682400Y-53985200D03*
X56682400Y-52085200D03*
X55382400Y-52085200D03*
%TD*%
D13*
%TO.C,TB1*%
X31889200Y-36753800D03*
X30239200Y-36753800D03*
%TD*%
D14*
%TO.C,CB1*%
X65100200Y-39498800D03*
X65100200Y-36548800D03*
%TD*%
D15*
%TO.C,U2*%
X50386800Y-30343000D03*
X49736800Y-30343000D03*
X49086800Y-30343000D03*
X48436800Y-30343000D03*
X47786800Y-30343000D03*
X47136800Y-30343000D03*
X46486800Y-30343000D03*
X46486800Y-36068000D03*
X47136800Y-36068000D03*
X47786800Y-36068000D03*
X48436800Y-36068000D03*
X49086800Y-36068000D03*
X49736800Y-36068000D03*
X50386800Y-36068000D03*
%TD*%
D16*
%TO.C,U3*%
X45744800Y-44208000D03*
X45744800Y-44708000D03*
X45744800Y-45208000D03*
X45744800Y-45708000D03*
X48844800Y-45708000D03*
X48844800Y-45208000D03*
X48844800Y-44708000D03*
X48844800Y-44208000D03*
%TD*%
D10*
%TO.C,CA9*%
X56692800Y-49123000D03*
X56692800Y-50673000D03*
%TD*%
D17*
%TO.C,U1*%
X37756100Y-27343600D03*
X37756100Y-28613600D03*
X37756100Y-29883600D03*
X37756100Y-31153600D03*
X37756100Y-32423600D03*
X37756100Y-33693600D03*
X37756100Y-34963600D03*
X37756100Y-36233600D03*
X42480500Y-36233600D03*
X42480500Y-34963600D03*
X42480500Y-33693600D03*
X42480500Y-32423600D03*
X42480500Y-31153600D03*
X42480500Y-29883600D03*
X42480500Y-28613600D03*
X42480500Y-27343600D03*
%TD*%
D18*
%TO.C,RC9*%
X35661600Y-48667400D03*
X35661600Y-50317400D03*
%TD*%
D19*
%TO.C,RD3*%
X63437000Y-54305200D03*
X65087000Y-54305200D03*
%TD*%
D20*
%TO.C,CA7*%
X39420800Y-39014400D03*
X40970800Y-39014400D03*
%TD*%
D18*
%TO.C,RC7*%
X28422600Y-48692800D03*
X28422600Y-50342800D03*
%TD*%
D21*
%TO.C,U7*%
X61405800Y-38683400D03*
X59105800Y-38683400D03*
D22*
X59105800Y-44983400D03*
D21*
X56805800Y-38683400D03*
%TD*%
D23*
%TO.C,ZDA2*%
X34848800Y-30556400D03*
X34848800Y-28981400D03*
%TD*%
D19*
%TO.C,RA4*%
X52146200Y-31699200D03*
X53796200Y-31699200D03*
%TD*%
D24*
%TO.C,TA1*%
X31826200Y-27482800D03*
X31826200Y-25832800D03*
%TD*%
D10*
%TO.C,CA4*%
X44677600Y-27292200D03*
X44677600Y-28842200D03*
%TD*%
D24*
%TO.C,RA5*%
X33324800Y-33755600D03*
X33324800Y-32105600D03*
%TD*%
D13*
%TO.C,RB3*%
X53796200Y-36271200D03*
X52146200Y-36271200D03*
%TD*%
D19*
%TO.C,RC4*%
X44763400Y-54305200D03*
X46413400Y-54305200D03*
%TD*%
D13*
%TO.C,RC5*%
X20548600Y-48895000D03*
X18898600Y-48895000D03*
%TD*%
%TO.C,RB1*%
X53796200Y-30175200D03*
X52146200Y-30175200D03*
%TD*%
D25*
%TO.C,QN1*%
X23175000Y-51973900D03*
X21275000Y-51973900D03*
X22225000Y-54248900D03*
%TD*%
D18*
%TO.C,RC6*%
X23190200Y-48692800D03*
X23190200Y-50342800D03*
%TD*%
%TO.C,RC10*%
X37592000Y-48667400D03*
X37592000Y-50317400D03*
%TD*%
D24*
%TO.C,RD1*%
X53060600Y-51574200D03*
X53060600Y-49924200D03*
%TD*%
D10*
%TO.C,CA1*%
X50850800Y-25501000D03*
X50850800Y-27051000D03*
%TD*%
%TO.C,CA2*%
X49326800Y-25501000D03*
X49326800Y-27051000D03*
%TD*%
D26*
%TO.C,U4*%
X36657700Y-40553600D03*
X36657700Y-41503600D03*
X36657700Y-42453600D03*
X38932700Y-42453600D03*
X38932700Y-40553600D03*
%TD*%
D18*
%TO.C,RC1*%
X32512000Y-43777400D03*
X32512000Y-45427400D03*
%TD*%
D27*
%TO.C,LED1*%
X17754600Y-53904800D03*
X17754600Y-51104800D03*
%TD*%
%TO.C,LED4*%
X40843200Y-53975000D03*
X40843200Y-51175000D03*
%TD*%
D28*
%TO.C,U5*%
X41300400Y-40940200D03*
X41300400Y-41590200D03*
X41300400Y-42240200D03*
X43200400Y-42240200D03*
X43200400Y-41590200D03*
X43200400Y-40940200D03*
%TD*%
D29*
%TO.C,CA8*%
X44602400Y-42088400D03*
X44602400Y-40538400D03*
%TD*%
D30*
%TO.C,POT1*%
X32528000Y-41932000D03*
D31*
X33528000Y-38682000D03*
D30*
X34528000Y-41932000D03*
%TD*%
D14*
%TO.C,CC3*%
X60172600Y-29975600D03*
X60172600Y-27025600D03*
%TD*%
D18*
%TO.C,RD2*%
X37338000Y-43942000D03*
X37338000Y-45592000D03*
%TD*%
%TO.C,TA2*%
X31800800Y-28956000D03*
X31800800Y-30606000D03*
%TD*%
D27*
%TO.C,LED2*%
X26416000Y-53943400D03*
X26416000Y-51143400D03*
%TD*%
D32*
%TO.C,CA5*%
X47968200Y-38100000D03*
X46418200Y-38100000D03*
%TD*%
D19*
%TO.C,RA6*%
X52146200Y-34747200D03*
X53796200Y-34747200D03*
%TD*%
D24*
%TO.C,RA1*%
X33350200Y-27481800D03*
X33350200Y-25831800D03*
%TD*%
D13*
%TO.C,RC2*%
X44704000Y-39065200D03*
X43054000Y-39065200D03*
%TD*%
D29*
%TO.C,CA6*%
X51384200Y-45529800D03*
X51384200Y-43979800D03*
%TD*%
D18*
%TO.C,RC11*%
X41224200Y-47866800D03*
X41224200Y-49516800D03*
%TD*%
D27*
%TO.C,LED3*%
X33629600Y-53943400D03*
X33629600Y-51143400D03*
%TD*%
D18*
%TO.C,RC3*%
X53644800Y-43992800D03*
X53644800Y-45642800D03*
%TD*%
%TO.C,RA7*%
X33350200Y-35166800D03*
X33350200Y-36816800D03*
%TD*%
%TO.C,TA3*%
X31826200Y-32105600D03*
X31826200Y-33755600D03*
%TD*%
D13*
%TO.C,RB2*%
X53796200Y-33223200D03*
X52146200Y-33223200D03*
%TD*%
D33*
%TO.C,ZDA1*%
X34848800Y-25869300D03*
X34848800Y-27444300D03*
%TD*%
D11*
%TO.C,CC1*%
X53998600Y-24993600D03*
X56948600Y-24993600D03*
%TD*%
D19*
%TO.C,RA3*%
X52147200Y-28651200D03*
X53797200Y-28651200D03*
%TD*%
D25*
%TO.C,QN3*%
X37566600Y-51943000D03*
X35666600Y-51943000D03*
X36616600Y-54218000D03*
%TD*%
D14*
%TO.C,CC2*%
X57835800Y-29972000D03*
X57835800Y-27022000D03*
%TD*%
D18*
%TO.C,RA2*%
X33324800Y-28956000D03*
X33324800Y-30606000D03*
%TD*%
D23*
%TO.C,ZDB1*%
X34925000Y-36779400D03*
X34925000Y-35204400D03*
%TD*%
D25*
%TO.C,QN2*%
X30348000Y-51968400D03*
X28448000Y-51968400D03*
X29398000Y-54243400D03*
%TD*%
D33*
%TO.C,ZDA3*%
X34848800Y-32156400D03*
X34848800Y-33731400D03*
%TD*%
D18*
%TO.C,RC8*%
X30353000Y-48692800D03*
X30353000Y-50342800D03*
%TD*%
M02*
