M48
; DRILL file {KiCad 7.0.8} date 2024 April 14, Sunday 12:45:37
; FORMAT={-:-/ absolute / inch / decimal}
; #@! TF.CreationDate,2024-04-14T12:45:37-04:00
; #@! TF.GenerationSoftware,Kicad,Pcbnew,7.0.8
; #@! TF.FileFunction,Plated,1,2,PTH
FMAT,2
INCH
; #@! TA.AperFunction,Plated,PTH,ViaDrill
T1C0.0157
; #@! TA.AperFunction,Plated,PTH,ComponentDrill
T2C0.0315
; #@! TA.AperFunction,Plated,PTH,ComponentDrill
T3C0.0394
%
G90
G05
T1
X0.699Y-1.89
X0.7Y-2.193
X0.745Y-0.943
X0.758Y-2.07
X0.783Y-1.46
X0.784Y-1.162
X0.784Y-1.36
X0.784Y-1.559
X0.785Y-1.262
X0.828Y-2.15
X0.847Y-1.859
X0.877Y-2.04
X0.903Y-1.856
X0.909Y-1.512
X1.017Y-0.943
X1.022Y-1.944
X1.032Y-1.16
X1.033Y-1.561
X1.044Y-2.07
X1.062Y-1.763
X1.104Y-1.248
X1.11Y-2.146
X1.111Y-1.465
X1.122Y-1.338
X1.124Y-1.045
X1.1985Y-1.154
X1.201Y-1.088
X1.208Y-1.674
X1.232Y-1.802
X1.237Y-1.384
X1.248Y-1.874
X1.2722Y-1.9215
X1.3Y-1.956
X1.322Y-2.07
X1.343Y-1.884
X1.36Y-1.59
X1.3815Y-1.7737
X1.414Y-1.167
X1.441Y-1.877
X1.441Y-1.95
X1.442Y-2.046
X1.466Y-1.047
X1.496Y-1.633
X1.528Y-2.192
X1.5302Y-1.0035
X1.537Y-1.784
X1.539Y-1.72
X1.545Y-2.009
X1.551Y-1.8764
X1.5516Y-0.9705
X1.569Y-1.321
X1.588Y-1.721
X1.591Y-1.613
X1.6095Y-1.3658
X1.6179Y-1.2449
X1.628Y-1.477
X1.644Y-0.7386
X1.665Y-1.5614
X1.667Y-1.7235
X1.667Y-1.781
X1.711Y-2.146
X1.716Y-1.028
X1.722Y-1.859
X1.7225Y-1.797
X1.747Y-0.733
X1.755Y-1.6942
X1.757Y-0.896
X1.76Y-2.17
X1.7608Y-1.3649
X1.79Y-1.502
X1.804Y-1.574
X1.812Y-1.849
X1.8488Y-1.7513
X1.852Y-1.346
X1.859Y-1.669
X1.873Y-0.736
X1.874Y-0.895
X1.876Y-0.808
X1.88Y-1.256
X1.883Y-1.134
X1.9006Y-1.8584
X1.9037Y-1.7024
X1.966Y-1.787
X1.975Y-1.655
X1.994Y-0.897
X1.9972Y-1.8489
X2.001Y-1.931
X2.0146Y-2.1239
X2.02Y-1.542
X2.026Y-2.072
X2.03Y-0.733
X2.068Y-1.737
X2.088Y-1.52
X2.092Y-1.92
X2.0929Y-2.091
X2.0966Y-1.8526
X2.107Y-2.206
X2.133Y-0.75
X2.158Y-1.648
X2.169Y-1.901
X2.178Y-1.085
X2.215Y-1.598
X2.215Y-1.644
X2.215Y-1.693
X2.221Y-1.768
X2.231Y-2.1755
X2.233Y-1.888
X2.244Y-1.271
X2.278Y-1.122
X2.295Y-0.982
X2.304Y-1.9135
X2.328Y-1.593
X2.328Y-1.698
X2.328Y-1.8315
X2.339Y-1.313
X2.371Y-1.122
X2.382Y-1.004
X2.443Y-1.645
X2.444Y-1.602
X2.444Y-1.7
X2.446Y-1.771
X2.446Y-2.087
X2.468Y-1.912
X2.473Y-1.423
X2.565Y-1.084
X2.596Y-2.198
X2.599Y-2.093
T2
X0.8403Y-0.785
X0.919Y-0.785
X0.9977Y-0.785
T3
X0.861Y-1.061
X0.861Y-1.161
X0.861Y-1.261
X0.861Y-1.361
X0.861Y-1.461
X0.861Y-1.561
X0.861Y-1.661
X0.961Y-1.061
X0.961Y-1.161
X0.961Y-1.261
X0.961Y-1.361
X0.961Y-1.461
X0.961Y-1.561
X0.961Y-1.661
T0
M30
