%TF.GenerationSoftware,KiCad,Pcbnew,7.0.8*%
%TF.CreationDate,2024-04-14T12:45:38-04:00*%
%TF.ProjectId,tv desecrator,74762064-6573-4656-9372-61746f722e6b,rev?*%
%TF.SameCoordinates,Original*%
%TF.FileFunction,Drillmap*%
%TF.FilePolarity,Positive*%
%FSLAX45Y45*%
G04 Gerber Fmt 4.5, Leading zero omitted, Abs format (unit mm)*
G04 Created by KiCad (PCBNEW 7.0.8) date 2024-04-14 12:45:38*
%MOMM*%
%LPD*%
G01*
G04 APERTURE LIST*
%ADD10C,0.100000*%
%ADD11C,0.200000*%
%ADD12C,0.040000*%
%ADD13C,0.080000*%
G04 APERTURE END LIST*
D10*
X1595120Y-1821180D02*
X6659880Y-1821180D01*
X6659880Y-5659120D01*
X1595120Y-5659120D01*
X1595120Y-1821180D01*
D11*
D12*
X1755460Y-4780600D02*
X1795460Y-4820600D01*
X1795460Y-4780600D02*
X1755460Y-4820600D01*
X1758000Y-5550220D02*
X1798000Y-5590220D01*
X1798000Y-5550220D02*
X1758000Y-5590220D01*
X1872300Y-2375220D02*
X1912300Y-2415220D01*
X1912300Y-2375220D02*
X1872300Y-2415220D01*
X1905320Y-5237800D02*
X1945320Y-5277800D01*
X1945320Y-5237800D02*
X1905320Y-5277800D01*
X1968820Y-3688400D02*
X2008820Y-3728400D01*
X2008820Y-3688400D02*
X1968820Y-3728400D01*
X1971360Y-2931480D02*
X2011360Y-2971480D01*
X2011360Y-2931480D02*
X1971360Y-2971480D01*
X1971360Y-3434400D02*
X2011360Y-3474400D01*
X2011360Y-3434400D02*
X1971360Y-3474400D01*
X1971360Y-3939860D02*
X2011360Y-3979860D01*
X2011360Y-3939860D02*
X1971360Y-3979860D01*
X1973900Y-3185480D02*
X2013900Y-3225480D01*
X2013900Y-3185480D02*
X1973900Y-3225480D01*
X2083120Y-5441000D02*
X2123120Y-5481000D01*
X2123120Y-5441000D02*
X2083120Y-5481000D01*
X2131380Y-4701860D02*
X2171380Y-4741860D01*
X2171380Y-4701860D02*
X2131380Y-4741860D01*
X2207550Y-5161600D02*
X2247550Y-5201600D01*
X2247550Y-5161600D02*
X2207550Y-5201600D01*
X2273620Y-4694240D02*
X2313620Y-4734240D01*
X2313620Y-4694240D02*
X2273620Y-4734240D01*
X2288860Y-3820480D02*
X2328860Y-3860480D01*
X2328860Y-3820480D02*
X2288860Y-3860480D01*
X2563180Y-2375220D02*
X2603180Y-2415220D01*
X2603180Y-2375220D02*
X2563180Y-2415220D01*
X2575880Y-4917760D02*
X2615880Y-4957760D01*
X2615880Y-4917760D02*
X2575880Y-4957760D01*
X2601280Y-2926400D02*
X2641280Y-2966400D01*
X2641280Y-2926400D02*
X2601280Y-2966400D01*
X2603820Y-3944940D02*
X2643820Y-3984940D01*
X2643820Y-3944940D02*
X2603820Y-3984940D01*
X2631760Y-5237800D02*
X2671760Y-5277800D01*
X2671760Y-5237800D02*
X2631760Y-5277800D01*
X2677480Y-4458020D02*
X2717480Y-4498020D01*
X2717480Y-4458020D02*
X2677480Y-4498020D01*
X2784160Y-3149920D02*
X2824160Y-3189920D01*
X2824160Y-3149920D02*
X2784160Y-3189920D01*
X2799400Y-5430840D02*
X2839400Y-5470840D01*
X2839400Y-5430840D02*
X2799400Y-5470840D01*
X2801940Y-3701100D02*
X2841940Y-3741100D01*
X2841940Y-3701100D02*
X2801940Y-3741100D01*
X2829880Y-3378520D02*
X2869880Y-3418520D01*
X2869880Y-3378520D02*
X2829880Y-3418520D01*
X2834960Y-2634300D02*
X2874960Y-2674300D01*
X2874960Y-2634300D02*
X2834960Y-2674300D01*
X3024250Y-2911124D02*
X3064250Y-2951124D01*
X3064250Y-2911124D02*
X3024250Y-2951124D01*
X3030540Y-2743520D02*
X3070540Y-2783520D01*
X3070540Y-2743520D02*
X3030540Y-2783520D01*
X3048320Y-4231960D02*
X3088320Y-4271960D01*
X3088320Y-4231960D02*
X3048320Y-4271960D01*
X3109280Y-4557080D02*
X3149280Y-4597080D01*
X3149280Y-4557080D02*
X3109280Y-4597080D01*
X3121980Y-3495360D02*
X3161980Y-3535360D01*
X3161980Y-3495360D02*
X3121980Y-3535360D01*
X3149920Y-4739960D02*
X3189920Y-4779960D01*
X3189920Y-4739960D02*
X3149920Y-4779960D01*
X3211324Y-4860550D02*
X3251324Y-4900550D01*
X3251324Y-4860550D02*
X3211324Y-4900550D01*
X3282000Y-4948240D02*
X3322000Y-4988240D01*
X3322000Y-4948240D02*
X3282000Y-4988240D01*
X3337880Y-5237800D02*
X3377880Y-5277800D01*
X3377880Y-5237800D02*
X3337880Y-5277800D01*
X3391220Y-4765360D02*
X3431220Y-4805360D01*
X3431220Y-4765360D02*
X3391220Y-4805360D01*
X3434400Y-4018600D02*
X3474400Y-4058600D01*
X3474400Y-4018600D02*
X3434400Y-4058600D01*
X3488889Y-4485122D02*
X3528889Y-4525122D01*
X3528889Y-4485122D02*
X3488889Y-4525122D01*
X3571560Y-2944180D02*
X3611560Y-2984180D01*
X3611560Y-2944180D02*
X3571560Y-2984180D01*
X3640140Y-4747580D02*
X3680140Y-4787580D01*
X3680140Y-4747580D02*
X3640140Y-4787580D01*
X3640140Y-4933000D02*
X3680140Y-4973000D01*
X3680140Y-4933000D02*
X3640140Y-4973000D01*
X3642680Y-5176840D02*
X3682680Y-5216840D01*
X3682680Y-5176840D02*
X3642680Y-5216840D01*
X3703640Y-2639380D02*
X3743640Y-2679380D01*
X3743640Y-2639380D02*
X3703640Y-2679380D01*
X3779840Y-4127820D02*
X3819840Y-4167820D01*
X3819840Y-4127820D02*
X3779840Y-4167820D01*
X3861120Y-5547680D02*
X3901120Y-5587680D01*
X3901120Y-5547680D02*
X3861120Y-5587680D01*
X3866819Y-2528830D02*
X3906819Y-2568830D01*
X3906819Y-2528830D02*
X3866819Y-2568830D01*
X3883980Y-4511360D02*
X3923980Y-4551360D01*
X3923980Y-4511360D02*
X3883980Y-4551360D01*
X3889060Y-4348800D02*
X3929060Y-4388800D01*
X3929060Y-4348800D02*
X3889060Y-4388800D01*
X3904300Y-5082860D02*
X3944300Y-5122860D01*
X3944300Y-5082860D02*
X3904300Y-5122860D01*
X3919540Y-4746170D02*
X3959540Y-4786170D01*
X3959540Y-4746170D02*
X3919540Y-4786170D01*
X3921178Y-2444954D02*
X3961178Y-2484954D01*
X3961178Y-2444954D02*
X3921178Y-2484954D01*
X3965260Y-3335340D02*
X4005260Y-3375340D01*
X4005260Y-3335340D02*
X3965260Y-3375340D01*
X4013520Y-4351340D02*
X4053520Y-4391340D01*
X4053520Y-4351340D02*
X4013520Y-4391340D01*
X4021140Y-4077020D02*
X4061140Y-4117020D01*
X4061140Y-4077020D02*
X4021140Y-4117020D01*
X4068242Y-3449118D02*
X4108242Y-3489118D01*
X4108242Y-3449118D02*
X4068242Y-3489118D01*
X4089505Y-3142132D02*
X4129505Y-3182132D01*
X4129505Y-3142132D02*
X4089505Y-3182132D01*
X4115120Y-3731580D02*
X4155120Y-3771580D01*
X4155120Y-3731580D02*
X4115120Y-3771580D01*
X4155760Y-1855930D02*
X4195760Y-1895930D01*
X4195760Y-1855930D02*
X4155760Y-1895930D01*
X4209100Y-3946070D02*
X4249100Y-3986070D01*
X4249100Y-3946070D02*
X4209100Y-3986070D01*
X4214180Y-4357630D02*
X4254180Y-4397630D01*
X4254180Y-4357630D02*
X4214180Y-4397630D01*
X4214180Y-4503740D02*
X4254180Y-4543740D01*
X4254180Y-4503740D02*
X4214180Y-4543740D01*
X4325940Y-5430840D02*
X4365940Y-5470840D01*
X4365940Y-5430840D02*
X4325940Y-5470840D01*
X4338640Y-2591120D02*
X4378640Y-2631120D01*
X4378640Y-2591120D02*
X4338640Y-2631120D01*
X4353880Y-4701860D02*
X4393880Y-4741860D01*
X4393880Y-4701860D02*
X4353880Y-4741860D01*
X4355220Y-4544380D02*
X4395220Y-4584380D01*
X4395220Y-4544380D02*
X4355220Y-4584380D01*
X4417380Y-1841820D02*
X4457380Y-1881820D01*
X4457380Y-1841820D02*
X4417380Y-1881820D01*
X4437700Y-4283350D02*
X4477700Y-4323350D01*
X4477700Y-4283350D02*
X4437700Y-4323350D01*
X4442780Y-2255840D02*
X4482780Y-2295840D01*
X4482780Y-2255840D02*
X4442780Y-2295840D01*
X4450400Y-5491800D02*
X4490400Y-5531800D01*
X4490400Y-5491800D02*
X4450400Y-5531800D01*
X4452450Y-3446968D02*
X4492450Y-3486968D01*
X4492450Y-3446968D02*
X4452450Y-3486968D01*
X4526600Y-3795080D02*
X4566600Y-3835080D01*
X4566600Y-3795080D02*
X4526600Y-3835080D01*
X4562160Y-3977960D02*
X4602160Y-4017960D01*
X4602160Y-3977960D02*
X4562160Y-4017960D01*
X4582480Y-4676460D02*
X4622480Y-4716460D01*
X4622480Y-4676460D02*
X4582480Y-4716460D01*
X4675850Y-4428350D02*
X4715850Y-4468350D01*
X4715850Y-4428350D02*
X4675850Y-4468350D01*
X4684080Y-3398840D02*
X4724080Y-3438840D01*
X4724080Y-3398840D02*
X4684080Y-3438840D01*
X4701860Y-4219260D02*
X4741860Y-4259260D01*
X4741860Y-4219260D02*
X4701860Y-4259260D01*
X4737420Y-1849440D02*
X4777420Y-1889440D01*
X4777420Y-1849440D02*
X4737420Y-1889440D01*
X4739960Y-2253300D02*
X4779960Y-2293300D01*
X4779960Y-2253300D02*
X4739960Y-2293300D01*
X4745040Y-2032320D02*
X4785040Y-2072320D01*
X4785040Y-2032320D02*
X4745040Y-2072320D01*
X4755200Y-3170240D02*
X4795200Y-3210240D01*
X4795200Y-3170240D02*
X4755200Y-3210240D01*
X4762820Y-2860360D02*
X4802820Y-2900360D01*
X4802820Y-2860360D02*
X4762820Y-2900360D01*
X4807645Y-4700215D02*
X4847645Y-4740215D01*
X4847645Y-4700215D02*
X4807645Y-4740215D01*
X4815401Y-4304001D02*
X4855401Y-4344001D01*
X4855401Y-4304001D02*
X4815401Y-4344001D01*
X4973640Y-4518980D02*
X5013640Y-4558980D01*
X5013640Y-4518980D02*
X4973640Y-4558980D01*
X4996500Y-4183700D02*
X5036500Y-4223700D01*
X5036500Y-4183700D02*
X4996500Y-4223700D01*
X5044760Y-2258380D02*
X5084760Y-2298380D01*
X5084760Y-2258380D02*
X5044760Y-2298380D01*
X5052880Y-4676100D02*
X5092880Y-4716100D01*
X5092880Y-4676100D02*
X5052880Y-4716100D01*
X5062540Y-4884740D02*
X5102540Y-4924740D01*
X5102540Y-4884740D02*
X5062540Y-4924740D01*
X5097139Y-5374797D02*
X5137139Y-5414797D01*
X5137139Y-5374797D02*
X5097139Y-5414797D01*
X5110800Y-3896680D02*
X5150800Y-3936680D01*
X5150800Y-3896680D02*
X5110800Y-3936680D01*
X5126040Y-5242880D02*
X5166040Y-5282880D01*
X5166040Y-5242880D02*
X5126040Y-5282880D01*
X5136200Y-1841820D02*
X5176200Y-1881820D01*
X5176200Y-1841820D02*
X5136200Y-1881820D01*
X5232720Y-4391980D02*
X5272720Y-4431980D01*
X5272720Y-4391980D02*
X5232720Y-4431980D01*
X5283520Y-3840800D02*
X5323520Y-3880800D01*
X5323520Y-3840800D02*
X5283520Y-3880800D01*
X5293680Y-4856800D02*
X5333680Y-4896800D01*
X5333680Y-4856800D02*
X5293680Y-4896800D01*
X5295990Y-5291140D02*
X5335990Y-5331140D01*
X5335990Y-5291140D02*
X5295990Y-5331140D01*
X5305490Y-4685730D02*
X5345490Y-4725730D01*
X5345490Y-4685730D02*
X5305490Y-4725730D01*
X5331780Y-5583240D02*
X5371780Y-5623240D01*
X5371780Y-5583240D02*
X5331780Y-5623240D01*
X5397820Y-1885000D02*
X5437820Y-1925000D01*
X5437820Y-1885000D02*
X5397820Y-1925000D01*
X5461320Y-4165920D02*
X5501320Y-4205920D01*
X5501320Y-4165920D02*
X5461320Y-4205920D01*
X5489260Y-4808540D02*
X5529260Y-4848540D01*
X5529260Y-4808540D02*
X5489260Y-4848540D01*
X5512120Y-2735900D02*
X5552120Y-2775900D01*
X5552120Y-2735900D02*
X5512120Y-2775900D01*
X5606100Y-4038920D02*
X5646100Y-4078920D01*
X5646100Y-4038920D02*
X5606100Y-4078920D01*
X5606100Y-4155760D02*
X5646100Y-4195760D01*
X5646100Y-4155760D02*
X5606100Y-4195760D01*
X5606100Y-4280220D02*
X5646100Y-4320220D01*
X5646100Y-4280220D02*
X5606100Y-4320220D01*
X5621340Y-4470720D02*
X5661340Y-4510720D01*
X5661340Y-4470720D02*
X5621340Y-4510720D01*
X5646740Y-5505710D02*
X5686740Y-5545710D01*
X5686740Y-5505710D02*
X5646740Y-5545710D01*
X5651820Y-4775520D02*
X5691820Y-4815520D01*
X5691820Y-4775520D02*
X5651820Y-4815520D01*
X5679760Y-3208340D02*
X5719760Y-3248340D01*
X5719760Y-3208340D02*
X5679760Y-3248340D01*
X5766120Y-2829880D02*
X5806120Y-2869880D01*
X5806120Y-2829880D02*
X5766120Y-2869880D01*
X5809300Y-2474280D02*
X5849300Y-2514280D01*
X5849300Y-2474280D02*
X5809300Y-2514280D01*
X5832160Y-4840350D02*
X5872160Y-4880350D01*
X5872160Y-4840350D02*
X5832160Y-4880350D01*
X5893120Y-4026220D02*
X5933120Y-4066220D01*
X5933120Y-4026220D02*
X5893120Y-4066220D01*
X5893120Y-4292920D02*
X5933120Y-4332920D01*
X5933120Y-4292920D02*
X5893120Y-4332920D01*
X5893120Y-4631950D02*
X5933120Y-4671950D01*
X5933120Y-4631950D02*
X5893120Y-4671950D01*
X5921060Y-3315020D02*
X5961060Y-3355020D01*
X5961060Y-3315020D02*
X5921060Y-3355020D01*
X6002340Y-2829880D02*
X6042340Y-2869880D01*
X6042340Y-2829880D02*
X6002340Y-2869880D01*
X6030280Y-2530160D02*
X6070280Y-2570160D01*
X6070280Y-2530160D02*
X6030280Y-2570160D01*
X6185220Y-4158300D02*
X6225220Y-4198300D01*
X6225220Y-4158300D02*
X6185220Y-4198300D01*
X6187760Y-4049080D02*
X6227760Y-4089080D01*
X6227760Y-4049080D02*
X6187760Y-4089080D01*
X6187760Y-4298000D02*
X6227760Y-4338000D01*
X6227760Y-4298000D02*
X6187760Y-4338000D01*
X6192840Y-4478340D02*
X6232840Y-4518340D01*
X6232840Y-4478340D02*
X6192840Y-4518340D01*
X6192840Y-5280980D02*
X6232840Y-5320980D01*
X6232840Y-5280980D02*
X6192840Y-5320980D01*
X6248720Y-4836480D02*
X6288720Y-4876480D01*
X6288720Y-4836480D02*
X6248720Y-4876480D01*
X6261420Y-3594420D02*
X6301420Y-3634420D01*
X6301420Y-3594420D02*
X6261420Y-3634420D01*
X6495100Y-2733360D02*
X6535100Y-2773360D01*
X6535100Y-2733360D02*
X6495100Y-2773360D01*
X6573840Y-5562920D02*
X6613840Y-5602920D01*
X6613840Y-5562920D02*
X6573840Y-5602920D01*
X6581460Y-5296220D02*
X6621460Y-5336220D01*
X6621460Y-5296220D02*
X6581460Y-5336220D01*
D13*
X2174260Y-1993900D02*
G75*
G03*
X2174260Y-1993900I-40000J0D01*
G01*
X2374260Y-1993900D02*
G75*
G03*
X2374260Y-1993900I-40000J0D01*
G01*
X2574260Y-1993900D02*
G75*
G03*
X2574260Y-1993900I-40000J0D01*
G01*
D10*
X2186940Y-2644940D02*
X2186940Y-2744940D01*
X2136940Y-2694940D02*
X2236940Y-2694940D01*
X2186940Y-2898940D02*
X2186940Y-2998940D01*
X2136940Y-2948940D02*
X2236940Y-2948940D01*
X2186940Y-3152940D02*
X2186940Y-3252940D01*
X2136940Y-3202940D02*
X2236940Y-3202940D01*
X2186940Y-3406940D02*
X2186940Y-3506940D01*
X2136940Y-3456940D02*
X2236940Y-3456940D01*
X2186940Y-3660940D02*
X2186940Y-3760940D01*
X2136940Y-3710940D02*
X2236940Y-3710940D01*
X2186940Y-3914940D02*
X2186940Y-4014940D01*
X2136940Y-3964940D02*
X2236940Y-3964940D01*
X2186940Y-4168940D02*
X2186940Y-4268940D01*
X2136940Y-4218940D02*
X2236940Y-4218940D01*
X2440940Y-2644940D02*
X2440940Y-2744940D01*
X2390940Y-2694940D02*
X2490940Y-2694940D01*
X2440940Y-2898940D02*
X2440940Y-2998940D01*
X2390940Y-2948940D02*
X2490940Y-2948940D01*
X2440940Y-3152940D02*
X2440940Y-3252940D01*
X2390940Y-3202940D02*
X2490940Y-3202940D01*
X2440940Y-3406940D02*
X2440940Y-3506940D01*
X2390940Y-3456940D02*
X2490940Y-3456940D01*
X2440940Y-3660940D02*
X2440940Y-3760940D01*
X2390940Y-3710940D02*
X2490940Y-3710940D01*
X2440940Y-3914940D02*
X2440940Y-4014940D01*
X2390940Y-3964940D02*
X2490940Y-3964940D01*
X2440940Y-4168940D02*
X2440940Y-4268940D01*
X2390940Y-4218940D02*
X2490940Y-4218940D01*
D11*
X1850897Y-5975604D02*
X1850897Y-5775604D01*
X1850897Y-5775604D02*
X1898516Y-5775604D01*
X1898516Y-5775604D02*
X1927087Y-5785128D01*
X1927087Y-5785128D02*
X1946135Y-5804175D01*
X1946135Y-5804175D02*
X1955659Y-5823223D01*
X1955659Y-5823223D02*
X1965182Y-5861318D01*
X1965182Y-5861318D02*
X1965182Y-5889889D01*
X1965182Y-5889889D02*
X1955659Y-5927985D01*
X1955659Y-5927985D02*
X1946135Y-5947032D01*
X1946135Y-5947032D02*
X1927087Y-5966080D01*
X1927087Y-5966080D02*
X1898516Y-5975604D01*
X1898516Y-5975604D02*
X1850897Y-5975604D01*
X2050897Y-5975604D02*
X2050897Y-5842270D01*
X2050897Y-5880366D02*
X2060421Y-5861318D01*
X2060421Y-5861318D02*
X2069944Y-5851794D01*
X2069944Y-5851794D02*
X2088992Y-5842270D01*
X2088992Y-5842270D02*
X2108040Y-5842270D01*
X2174706Y-5975604D02*
X2174706Y-5842270D01*
X2174706Y-5775604D02*
X2165183Y-5785128D01*
X2165183Y-5785128D02*
X2174706Y-5794651D01*
X2174706Y-5794651D02*
X2184230Y-5785128D01*
X2184230Y-5785128D02*
X2174706Y-5775604D01*
X2174706Y-5775604D02*
X2174706Y-5794651D01*
X2298516Y-5975604D02*
X2279468Y-5966080D01*
X2279468Y-5966080D02*
X2269944Y-5947032D01*
X2269944Y-5947032D02*
X2269944Y-5775604D01*
X2403278Y-5975604D02*
X2384230Y-5966080D01*
X2384230Y-5966080D02*
X2374706Y-5947032D01*
X2374706Y-5947032D02*
X2374706Y-5775604D01*
X2631849Y-5975604D02*
X2631849Y-5775604D01*
X2631849Y-5775604D02*
X2698516Y-5918461D01*
X2698516Y-5918461D02*
X2765183Y-5775604D01*
X2765183Y-5775604D02*
X2765183Y-5975604D01*
X2946135Y-5975604D02*
X2946135Y-5870842D01*
X2946135Y-5870842D02*
X2936611Y-5851794D01*
X2936611Y-5851794D02*
X2917563Y-5842270D01*
X2917563Y-5842270D02*
X2879468Y-5842270D01*
X2879468Y-5842270D02*
X2860421Y-5851794D01*
X2946135Y-5966080D02*
X2927087Y-5975604D01*
X2927087Y-5975604D02*
X2879468Y-5975604D01*
X2879468Y-5975604D02*
X2860421Y-5966080D01*
X2860421Y-5966080D02*
X2850897Y-5947032D01*
X2850897Y-5947032D02*
X2850897Y-5927985D01*
X2850897Y-5927985D02*
X2860421Y-5908937D01*
X2860421Y-5908937D02*
X2879468Y-5899413D01*
X2879468Y-5899413D02*
X2927087Y-5899413D01*
X2927087Y-5899413D02*
X2946135Y-5889889D01*
X3041373Y-5842270D02*
X3041373Y-6042270D01*
X3041373Y-5851794D02*
X3060421Y-5842270D01*
X3060421Y-5842270D02*
X3098516Y-5842270D01*
X3098516Y-5842270D02*
X3117563Y-5851794D01*
X3117563Y-5851794D02*
X3127087Y-5861318D01*
X3127087Y-5861318D02*
X3136611Y-5880366D01*
X3136611Y-5880366D02*
X3136611Y-5937508D01*
X3136611Y-5937508D02*
X3127087Y-5956556D01*
X3127087Y-5956556D02*
X3117563Y-5966080D01*
X3117563Y-5966080D02*
X3098516Y-5975604D01*
X3098516Y-5975604D02*
X3060421Y-5975604D01*
X3060421Y-5975604D02*
X3041373Y-5966080D01*
X3222325Y-5956556D02*
X3231849Y-5966080D01*
X3231849Y-5966080D02*
X3222325Y-5975604D01*
X3222325Y-5975604D02*
X3212802Y-5966080D01*
X3212802Y-5966080D02*
X3222325Y-5956556D01*
X3222325Y-5956556D02*
X3222325Y-5975604D01*
X3222325Y-5851794D02*
X3231849Y-5861318D01*
X3231849Y-5861318D02*
X3222325Y-5870842D01*
X3222325Y-5870842D02*
X3212802Y-5861318D01*
X3212802Y-5861318D02*
X3222325Y-5851794D01*
X3222325Y-5851794D02*
X3222325Y-5870842D01*
D12*
X1550120Y-6284120D02*
X1590120Y-6324120D01*
X1590120Y-6284120D02*
X1550120Y-6324120D01*
D11*
X1888992Y-6195604D02*
X1908040Y-6195604D01*
X1908040Y-6195604D02*
X1927087Y-6205128D01*
X1927087Y-6205128D02*
X1936611Y-6214651D01*
X1936611Y-6214651D02*
X1946135Y-6233699D01*
X1946135Y-6233699D02*
X1955659Y-6271794D01*
X1955659Y-6271794D02*
X1955659Y-6319413D01*
X1955659Y-6319413D02*
X1946135Y-6357508D01*
X1946135Y-6357508D02*
X1936611Y-6376556D01*
X1936611Y-6376556D02*
X1927087Y-6386080D01*
X1927087Y-6386080D02*
X1908040Y-6395604D01*
X1908040Y-6395604D02*
X1888992Y-6395604D01*
X1888992Y-6395604D02*
X1869944Y-6386080D01*
X1869944Y-6386080D02*
X1860421Y-6376556D01*
X1860421Y-6376556D02*
X1850897Y-6357508D01*
X1850897Y-6357508D02*
X1841373Y-6319413D01*
X1841373Y-6319413D02*
X1841373Y-6271794D01*
X1841373Y-6271794D02*
X1850897Y-6233699D01*
X1850897Y-6233699D02*
X1860421Y-6214651D01*
X1860421Y-6214651D02*
X1869944Y-6205128D01*
X1869944Y-6205128D02*
X1888992Y-6195604D01*
X2041373Y-6376556D02*
X2050897Y-6386080D01*
X2050897Y-6386080D02*
X2041373Y-6395604D01*
X2041373Y-6395604D02*
X2031849Y-6386080D01*
X2031849Y-6386080D02*
X2041373Y-6376556D01*
X2041373Y-6376556D02*
X2041373Y-6395604D01*
X2222325Y-6262270D02*
X2222325Y-6395604D01*
X2174706Y-6186080D02*
X2127087Y-6328937D01*
X2127087Y-6328937D02*
X2250897Y-6328937D01*
X2365183Y-6195604D02*
X2384230Y-6195604D01*
X2384230Y-6195604D02*
X2403278Y-6205128D01*
X2403278Y-6205128D02*
X2412802Y-6214651D01*
X2412802Y-6214651D02*
X2422325Y-6233699D01*
X2422325Y-6233699D02*
X2431849Y-6271794D01*
X2431849Y-6271794D02*
X2431849Y-6319413D01*
X2431849Y-6319413D02*
X2422325Y-6357508D01*
X2422325Y-6357508D02*
X2412802Y-6376556D01*
X2412802Y-6376556D02*
X2403278Y-6386080D01*
X2403278Y-6386080D02*
X2384230Y-6395604D01*
X2384230Y-6395604D02*
X2365183Y-6395604D01*
X2365183Y-6395604D02*
X2346135Y-6386080D01*
X2346135Y-6386080D02*
X2336611Y-6376556D01*
X2336611Y-6376556D02*
X2327087Y-6357508D01*
X2327087Y-6357508D02*
X2317564Y-6319413D01*
X2317564Y-6319413D02*
X2317564Y-6271794D01*
X2317564Y-6271794D02*
X2327087Y-6233699D01*
X2327087Y-6233699D02*
X2336611Y-6214651D01*
X2336611Y-6214651D02*
X2346135Y-6205128D01*
X2346135Y-6205128D02*
X2365183Y-6195604D01*
X2555659Y-6195604D02*
X2574706Y-6195604D01*
X2574706Y-6195604D02*
X2593754Y-6205128D01*
X2593754Y-6205128D02*
X2603278Y-6214651D01*
X2603278Y-6214651D02*
X2612802Y-6233699D01*
X2612802Y-6233699D02*
X2622325Y-6271794D01*
X2622325Y-6271794D02*
X2622325Y-6319413D01*
X2622325Y-6319413D02*
X2612802Y-6357508D01*
X2612802Y-6357508D02*
X2603278Y-6376556D01*
X2603278Y-6376556D02*
X2593754Y-6386080D01*
X2593754Y-6386080D02*
X2574706Y-6395604D01*
X2574706Y-6395604D02*
X2555659Y-6395604D01*
X2555659Y-6395604D02*
X2536611Y-6386080D01*
X2536611Y-6386080D02*
X2527087Y-6376556D01*
X2527087Y-6376556D02*
X2517564Y-6357508D01*
X2517564Y-6357508D02*
X2508040Y-6319413D01*
X2508040Y-6319413D02*
X2508040Y-6271794D01*
X2508040Y-6271794D02*
X2517564Y-6233699D01*
X2517564Y-6233699D02*
X2527087Y-6214651D01*
X2527087Y-6214651D02*
X2536611Y-6205128D01*
X2536611Y-6205128D02*
X2555659Y-6195604D01*
X2708040Y-6395604D02*
X2708040Y-6262270D01*
X2708040Y-6281318D02*
X2717564Y-6271794D01*
X2717564Y-6271794D02*
X2736611Y-6262270D01*
X2736611Y-6262270D02*
X2765183Y-6262270D01*
X2765183Y-6262270D02*
X2784230Y-6271794D01*
X2784230Y-6271794D02*
X2793754Y-6290842D01*
X2793754Y-6290842D02*
X2793754Y-6395604D01*
X2793754Y-6290842D02*
X2803278Y-6271794D01*
X2803278Y-6271794D02*
X2822325Y-6262270D01*
X2822325Y-6262270D02*
X2850897Y-6262270D01*
X2850897Y-6262270D02*
X2869944Y-6271794D01*
X2869944Y-6271794D02*
X2879468Y-6290842D01*
X2879468Y-6290842D02*
X2879468Y-6395604D01*
X2974706Y-6395604D02*
X2974706Y-6262270D01*
X2974706Y-6281318D02*
X2984230Y-6271794D01*
X2984230Y-6271794D02*
X3003278Y-6262270D01*
X3003278Y-6262270D02*
X3031849Y-6262270D01*
X3031849Y-6262270D02*
X3050897Y-6271794D01*
X3050897Y-6271794D02*
X3060421Y-6290842D01*
X3060421Y-6290842D02*
X3060421Y-6395604D01*
X3060421Y-6290842D02*
X3069944Y-6271794D01*
X3069944Y-6271794D02*
X3088992Y-6262270D01*
X3088992Y-6262270D02*
X3117563Y-6262270D01*
X3117563Y-6262270D02*
X3136611Y-6271794D01*
X3136611Y-6271794D02*
X3146135Y-6290842D01*
X3146135Y-6290842D02*
X3146135Y-6395604D01*
X3536611Y-6186080D02*
X3365183Y-6443223D01*
X3793754Y-6195604D02*
X3812802Y-6195604D01*
X3812802Y-6195604D02*
X3831849Y-6205128D01*
X3831849Y-6205128D02*
X3841373Y-6214651D01*
X3841373Y-6214651D02*
X3850897Y-6233699D01*
X3850897Y-6233699D02*
X3860421Y-6271794D01*
X3860421Y-6271794D02*
X3860421Y-6319413D01*
X3860421Y-6319413D02*
X3850897Y-6357508D01*
X3850897Y-6357508D02*
X3841373Y-6376556D01*
X3841373Y-6376556D02*
X3831849Y-6386080D01*
X3831849Y-6386080D02*
X3812802Y-6395604D01*
X3812802Y-6395604D02*
X3793754Y-6395604D01*
X3793754Y-6395604D02*
X3774706Y-6386080D01*
X3774706Y-6386080D02*
X3765183Y-6376556D01*
X3765183Y-6376556D02*
X3755659Y-6357508D01*
X3755659Y-6357508D02*
X3746135Y-6319413D01*
X3746135Y-6319413D02*
X3746135Y-6271794D01*
X3746135Y-6271794D02*
X3755659Y-6233699D01*
X3755659Y-6233699D02*
X3765183Y-6214651D01*
X3765183Y-6214651D02*
X3774706Y-6205128D01*
X3774706Y-6205128D02*
X3793754Y-6195604D01*
X3946135Y-6376556D02*
X3955659Y-6386080D01*
X3955659Y-6386080D02*
X3946135Y-6395604D01*
X3946135Y-6395604D02*
X3936611Y-6386080D01*
X3936611Y-6386080D02*
X3946135Y-6376556D01*
X3946135Y-6376556D02*
X3946135Y-6395604D01*
X4079468Y-6195604D02*
X4098516Y-6195604D01*
X4098516Y-6195604D02*
X4117564Y-6205128D01*
X4117564Y-6205128D02*
X4127087Y-6214651D01*
X4127087Y-6214651D02*
X4136611Y-6233699D01*
X4136611Y-6233699D02*
X4146135Y-6271794D01*
X4146135Y-6271794D02*
X4146135Y-6319413D01*
X4146135Y-6319413D02*
X4136611Y-6357508D01*
X4136611Y-6357508D02*
X4127087Y-6376556D01*
X4127087Y-6376556D02*
X4117564Y-6386080D01*
X4117564Y-6386080D02*
X4098516Y-6395604D01*
X4098516Y-6395604D02*
X4079468Y-6395604D01*
X4079468Y-6395604D02*
X4060421Y-6386080D01*
X4060421Y-6386080D02*
X4050897Y-6376556D01*
X4050897Y-6376556D02*
X4041373Y-6357508D01*
X4041373Y-6357508D02*
X4031849Y-6319413D01*
X4031849Y-6319413D02*
X4031849Y-6271794D01*
X4031849Y-6271794D02*
X4041373Y-6233699D01*
X4041373Y-6233699D02*
X4050897Y-6214651D01*
X4050897Y-6214651D02*
X4060421Y-6205128D01*
X4060421Y-6205128D02*
X4079468Y-6195604D01*
X4336611Y-6395604D02*
X4222326Y-6395604D01*
X4279468Y-6395604D02*
X4279468Y-6195604D01*
X4279468Y-6195604D02*
X4260421Y-6224175D01*
X4260421Y-6224175D02*
X4241373Y-6243223D01*
X4241373Y-6243223D02*
X4222326Y-6252747D01*
X4517564Y-6195604D02*
X4422326Y-6195604D01*
X4422326Y-6195604D02*
X4412802Y-6290842D01*
X4412802Y-6290842D02*
X4422326Y-6281318D01*
X4422326Y-6281318D02*
X4441373Y-6271794D01*
X4441373Y-6271794D02*
X4488992Y-6271794D01*
X4488992Y-6271794D02*
X4508040Y-6281318D01*
X4508040Y-6281318D02*
X4517564Y-6290842D01*
X4517564Y-6290842D02*
X4527088Y-6309889D01*
X4527088Y-6309889D02*
X4527088Y-6357508D01*
X4527088Y-6357508D02*
X4517564Y-6376556D01*
X4517564Y-6376556D02*
X4508040Y-6386080D01*
X4508040Y-6386080D02*
X4488992Y-6395604D01*
X4488992Y-6395604D02*
X4441373Y-6395604D01*
X4441373Y-6395604D02*
X4422326Y-6386080D01*
X4422326Y-6386080D02*
X4412802Y-6376556D01*
X4593754Y-6195604D02*
X4727088Y-6195604D01*
X4727088Y-6195604D02*
X4641373Y-6395604D01*
X4793754Y-6195604D02*
X4793754Y-6233699D01*
X4869945Y-6195604D02*
X4869945Y-6233699D01*
X5165183Y-6471794D02*
X5155659Y-6462270D01*
X5155659Y-6462270D02*
X5136611Y-6433699D01*
X5136611Y-6433699D02*
X5127088Y-6414651D01*
X5127088Y-6414651D02*
X5117564Y-6386080D01*
X5117564Y-6386080D02*
X5108040Y-6338461D01*
X5108040Y-6338461D02*
X5108040Y-6300366D01*
X5108040Y-6300366D02*
X5117564Y-6252747D01*
X5117564Y-6252747D02*
X5127088Y-6224175D01*
X5127088Y-6224175D02*
X5136611Y-6205128D01*
X5136611Y-6205128D02*
X5155659Y-6176556D01*
X5155659Y-6176556D02*
X5165183Y-6167032D01*
X5346135Y-6395604D02*
X5231850Y-6395604D01*
X5288992Y-6395604D02*
X5288992Y-6195604D01*
X5288992Y-6195604D02*
X5269945Y-6224175D01*
X5269945Y-6224175D02*
X5250897Y-6243223D01*
X5250897Y-6243223D02*
X5231850Y-6252747D01*
X5422326Y-6214651D02*
X5431850Y-6205128D01*
X5431850Y-6205128D02*
X5450897Y-6195604D01*
X5450897Y-6195604D02*
X5498516Y-6195604D01*
X5498516Y-6195604D02*
X5517564Y-6205128D01*
X5517564Y-6205128D02*
X5527088Y-6214651D01*
X5527088Y-6214651D02*
X5536611Y-6233699D01*
X5536611Y-6233699D02*
X5536611Y-6252747D01*
X5536611Y-6252747D02*
X5527088Y-6281318D01*
X5527088Y-6281318D02*
X5412802Y-6395604D01*
X5412802Y-6395604D02*
X5536611Y-6395604D01*
X5603278Y-6195604D02*
X5736611Y-6195604D01*
X5736611Y-6195604D02*
X5650897Y-6395604D01*
X5965183Y-6395604D02*
X5965183Y-6195604D01*
X6050897Y-6395604D02*
X6050897Y-6290842D01*
X6050897Y-6290842D02*
X6041373Y-6271794D01*
X6041373Y-6271794D02*
X6022326Y-6262270D01*
X6022326Y-6262270D02*
X5993754Y-6262270D01*
X5993754Y-6262270D02*
X5974707Y-6271794D01*
X5974707Y-6271794D02*
X5965183Y-6281318D01*
X6174707Y-6395604D02*
X6155659Y-6386080D01*
X6155659Y-6386080D02*
X6146135Y-6376556D01*
X6146135Y-6376556D02*
X6136611Y-6357508D01*
X6136611Y-6357508D02*
X6136611Y-6300366D01*
X6136611Y-6300366D02*
X6146135Y-6281318D01*
X6146135Y-6281318D02*
X6155659Y-6271794D01*
X6155659Y-6271794D02*
X6174707Y-6262270D01*
X6174707Y-6262270D02*
X6203278Y-6262270D01*
X6203278Y-6262270D02*
X6222326Y-6271794D01*
X6222326Y-6271794D02*
X6231850Y-6281318D01*
X6231850Y-6281318D02*
X6241373Y-6300366D01*
X6241373Y-6300366D02*
X6241373Y-6357508D01*
X6241373Y-6357508D02*
X6231850Y-6376556D01*
X6231850Y-6376556D02*
X6222326Y-6386080D01*
X6222326Y-6386080D02*
X6203278Y-6395604D01*
X6203278Y-6395604D02*
X6174707Y-6395604D01*
X6355659Y-6395604D02*
X6336611Y-6386080D01*
X6336611Y-6386080D02*
X6327088Y-6367032D01*
X6327088Y-6367032D02*
X6327088Y-6195604D01*
X6508040Y-6386080D02*
X6488992Y-6395604D01*
X6488992Y-6395604D02*
X6450897Y-6395604D01*
X6450897Y-6395604D02*
X6431850Y-6386080D01*
X6431850Y-6386080D02*
X6422326Y-6367032D01*
X6422326Y-6367032D02*
X6422326Y-6290842D01*
X6422326Y-6290842D02*
X6431850Y-6271794D01*
X6431850Y-6271794D02*
X6450897Y-6262270D01*
X6450897Y-6262270D02*
X6488992Y-6262270D01*
X6488992Y-6262270D02*
X6508040Y-6271794D01*
X6508040Y-6271794D02*
X6517564Y-6290842D01*
X6517564Y-6290842D02*
X6517564Y-6309889D01*
X6517564Y-6309889D02*
X6422326Y-6328937D01*
X6593754Y-6386080D02*
X6612802Y-6395604D01*
X6612802Y-6395604D02*
X6650897Y-6395604D01*
X6650897Y-6395604D02*
X6669945Y-6386080D01*
X6669945Y-6386080D02*
X6679469Y-6367032D01*
X6679469Y-6367032D02*
X6679469Y-6357508D01*
X6679469Y-6357508D02*
X6669945Y-6338461D01*
X6669945Y-6338461D02*
X6650897Y-6328937D01*
X6650897Y-6328937D02*
X6622326Y-6328937D01*
X6622326Y-6328937D02*
X6603278Y-6319413D01*
X6603278Y-6319413D02*
X6593754Y-6300366D01*
X6593754Y-6300366D02*
X6593754Y-6290842D01*
X6593754Y-6290842D02*
X6603278Y-6271794D01*
X6603278Y-6271794D02*
X6622326Y-6262270D01*
X6622326Y-6262270D02*
X6650897Y-6262270D01*
X6650897Y-6262270D02*
X6669945Y-6271794D01*
X6746135Y-6471794D02*
X6755659Y-6462270D01*
X6755659Y-6462270D02*
X6774707Y-6433699D01*
X6774707Y-6433699D02*
X6784231Y-6414651D01*
X6784231Y-6414651D02*
X6793754Y-6386080D01*
X6793754Y-6386080D02*
X6803278Y-6338461D01*
X6803278Y-6338461D02*
X6803278Y-6300366D01*
X6803278Y-6300366D02*
X6793754Y-6252747D01*
X6793754Y-6252747D02*
X6784231Y-6224175D01*
X6784231Y-6224175D02*
X6774707Y-6205128D01*
X6774707Y-6205128D02*
X6755659Y-6176556D01*
X6755659Y-6176556D02*
X6746135Y-6167032D01*
D13*
X1590120Y-6568120D02*
G75*
G03*
X1590120Y-6568120I-40000J0D01*
G01*
D11*
X1888992Y-6459604D02*
X1908040Y-6459604D01*
X1908040Y-6459604D02*
X1927087Y-6469128D01*
X1927087Y-6469128D02*
X1936611Y-6478651D01*
X1936611Y-6478651D02*
X1946135Y-6497699D01*
X1946135Y-6497699D02*
X1955659Y-6535794D01*
X1955659Y-6535794D02*
X1955659Y-6583413D01*
X1955659Y-6583413D02*
X1946135Y-6621508D01*
X1946135Y-6621508D02*
X1936611Y-6640556D01*
X1936611Y-6640556D02*
X1927087Y-6650080D01*
X1927087Y-6650080D02*
X1908040Y-6659604D01*
X1908040Y-6659604D02*
X1888992Y-6659604D01*
X1888992Y-6659604D02*
X1869944Y-6650080D01*
X1869944Y-6650080D02*
X1860421Y-6640556D01*
X1860421Y-6640556D02*
X1850897Y-6621508D01*
X1850897Y-6621508D02*
X1841373Y-6583413D01*
X1841373Y-6583413D02*
X1841373Y-6535794D01*
X1841373Y-6535794D02*
X1850897Y-6497699D01*
X1850897Y-6497699D02*
X1860421Y-6478651D01*
X1860421Y-6478651D02*
X1869944Y-6469128D01*
X1869944Y-6469128D02*
X1888992Y-6459604D01*
X2041373Y-6640556D02*
X2050897Y-6650080D01*
X2050897Y-6650080D02*
X2041373Y-6659604D01*
X2041373Y-6659604D02*
X2031849Y-6650080D01*
X2031849Y-6650080D02*
X2041373Y-6640556D01*
X2041373Y-6640556D02*
X2041373Y-6659604D01*
X2165183Y-6545318D02*
X2146135Y-6535794D01*
X2146135Y-6535794D02*
X2136611Y-6526270D01*
X2136611Y-6526270D02*
X2127087Y-6507223D01*
X2127087Y-6507223D02*
X2127087Y-6497699D01*
X2127087Y-6497699D02*
X2136611Y-6478651D01*
X2136611Y-6478651D02*
X2146135Y-6469128D01*
X2146135Y-6469128D02*
X2165183Y-6459604D01*
X2165183Y-6459604D02*
X2203278Y-6459604D01*
X2203278Y-6459604D02*
X2222325Y-6469128D01*
X2222325Y-6469128D02*
X2231849Y-6478651D01*
X2231849Y-6478651D02*
X2241373Y-6497699D01*
X2241373Y-6497699D02*
X2241373Y-6507223D01*
X2241373Y-6507223D02*
X2231849Y-6526270D01*
X2231849Y-6526270D02*
X2222325Y-6535794D01*
X2222325Y-6535794D02*
X2203278Y-6545318D01*
X2203278Y-6545318D02*
X2165183Y-6545318D01*
X2165183Y-6545318D02*
X2146135Y-6554842D01*
X2146135Y-6554842D02*
X2136611Y-6564366D01*
X2136611Y-6564366D02*
X2127087Y-6583413D01*
X2127087Y-6583413D02*
X2127087Y-6621508D01*
X2127087Y-6621508D02*
X2136611Y-6640556D01*
X2136611Y-6640556D02*
X2146135Y-6650080D01*
X2146135Y-6650080D02*
X2165183Y-6659604D01*
X2165183Y-6659604D02*
X2203278Y-6659604D01*
X2203278Y-6659604D02*
X2222325Y-6650080D01*
X2222325Y-6650080D02*
X2231849Y-6640556D01*
X2231849Y-6640556D02*
X2241373Y-6621508D01*
X2241373Y-6621508D02*
X2241373Y-6583413D01*
X2241373Y-6583413D02*
X2231849Y-6564366D01*
X2231849Y-6564366D02*
X2222325Y-6554842D01*
X2222325Y-6554842D02*
X2203278Y-6545318D01*
X2365183Y-6459604D02*
X2384230Y-6459604D01*
X2384230Y-6459604D02*
X2403278Y-6469128D01*
X2403278Y-6469128D02*
X2412802Y-6478651D01*
X2412802Y-6478651D02*
X2422325Y-6497699D01*
X2422325Y-6497699D02*
X2431849Y-6535794D01*
X2431849Y-6535794D02*
X2431849Y-6583413D01*
X2431849Y-6583413D02*
X2422325Y-6621508D01*
X2422325Y-6621508D02*
X2412802Y-6640556D01*
X2412802Y-6640556D02*
X2403278Y-6650080D01*
X2403278Y-6650080D02*
X2384230Y-6659604D01*
X2384230Y-6659604D02*
X2365183Y-6659604D01*
X2365183Y-6659604D02*
X2346135Y-6650080D01*
X2346135Y-6650080D02*
X2336611Y-6640556D01*
X2336611Y-6640556D02*
X2327087Y-6621508D01*
X2327087Y-6621508D02*
X2317564Y-6583413D01*
X2317564Y-6583413D02*
X2317564Y-6535794D01*
X2317564Y-6535794D02*
X2327087Y-6497699D01*
X2327087Y-6497699D02*
X2336611Y-6478651D01*
X2336611Y-6478651D02*
X2346135Y-6469128D01*
X2346135Y-6469128D02*
X2365183Y-6459604D01*
X2555659Y-6459604D02*
X2574706Y-6459604D01*
X2574706Y-6459604D02*
X2593754Y-6469128D01*
X2593754Y-6469128D02*
X2603278Y-6478651D01*
X2603278Y-6478651D02*
X2612802Y-6497699D01*
X2612802Y-6497699D02*
X2622325Y-6535794D01*
X2622325Y-6535794D02*
X2622325Y-6583413D01*
X2622325Y-6583413D02*
X2612802Y-6621508D01*
X2612802Y-6621508D02*
X2603278Y-6640556D01*
X2603278Y-6640556D02*
X2593754Y-6650080D01*
X2593754Y-6650080D02*
X2574706Y-6659604D01*
X2574706Y-6659604D02*
X2555659Y-6659604D01*
X2555659Y-6659604D02*
X2536611Y-6650080D01*
X2536611Y-6650080D02*
X2527087Y-6640556D01*
X2527087Y-6640556D02*
X2517564Y-6621508D01*
X2517564Y-6621508D02*
X2508040Y-6583413D01*
X2508040Y-6583413D02*
X2508040Y-6535794D01*
X2508040Y-6535794D02*
X2517564Y-6497699D01*
X2517564Y-6497699D02*
X2527087Y-6478651D01*
X2527087Y-6478651D02*
X2536611Y-6469128D01*
X2536611Y-6469128D02*
X2555659Y-6459604D01*
X2708040Y-6659604D02*
X2708040Y-6526270D01*
X2708040Y-6545318D02*
X2717564Y-6535794D01*
X2717564Y-6535794D02*
X2736611Y-6526270D01*
X2736611Y-6526270D02*
X2765183Y-6526270D01*
X2765183Y-6526270D02*
X2784230Y-6535794D01*
X2784230Y-6535794D02*
X2793754Y-6554842D01*
X2793754Y-6554842D02*
X2793754Y-6659604D01*
X2793754Y-6554842D02*
X2803278Y-6535794D01*
X2803278Y-6535794D02*
X2822325Y-6526270D01*
X2822325Y-6526270D02*
X2850897Y-6526270D01*
X2850897Y-6526270D02*
X2869944Y-6535794D01*
X2869944Y-6535794D02*
X2879468Y-6554842D01*
X2879468Y-6554842D02*
X2879468Y-6659604D01*
X2974706Y-6659604D02*
X2974706Y-6526270D01*
X2974706Y-6545318D02*
X2984230Y-6535794D01*
X2984230Y-6535794D02*
X3003278Y-6526270D01*
X3003278Y-6526270D02*
X3031849Y-6526270D01*
X3031849Y-6526270D02*
X3050897Y-6535794D01*
X3050897Y-6535794D02*
X3060421Y-6554842D01*
X3060421Y-6554842D02*
X3060421Y-6659604D01*
X3060421Y-6554842D02*
X3069944Y-6535794D01*
X3069944Y-6535794D02*
X3088992Y-6526270D01*
X3088992Y-6526270D02*
X3117563Y-6526270D01*
X3117563Y-6526270D02*
X3136611Y-6535794D01*
X3136611Y-6535794D02*
X3146135Y-6554842D01*
X3146135Y-6554842D02*
X3146135Y-6659604D01*
X3536611Y-6450080D02*
X3365183Y-6707223D01*
X3793754Y-6459604D02*
X3812802Y-6459604D01*
X3812802Y-6459604D02*
X3831849Y-6469128D01*
X3831849Y-6469128D02*
X3841373Y-6478651D01*
X3841373Y-6478651D02*
X3850897Y-6497699D01*
X3850897Y-6497699D02*
X3860421Y-6535794D01*
X3860421Y-6535794D02*
X3860421Y-6583413D01*
X3860421Y-6583413D02*
X3850897Y-6621508D01*
X3850897Y-6621508D02*
X3841373Y-6640556D01*
X3841373Y-6640556D02*
X3831849Y-6650080D01*
X3831849Y-6650080D02*
X3812802Y-6659604D01*
X3812802Y-6659604D02*
X3793754Y-6659604D01*
X3793754Y-6659604D02*
X3774706Y-6650080D01*
X3774706Y-6650080D02*
X3765183Y-6640556D01*
X3765183Y-6640556D02*
X3755659Y-6621508D01*
X3755659Y-6621508D02*
X3746135Y-6583413D01*
X3746135Y-6583413D02*
X3746135Y-6535794D01*
X3746135Y-6535794D02*
X3755659Y-6497699D01*
X3755659Y-6497699D02*
X3765183Y-6478651D01*
X3765183Y-6478651D02*
X3774706Y-6469128D01*
X3774706Y-6469128D02*
X3793754Y-6459604D01*
X3946135Y-6640556D02*
X3955659Y-6650080D01*
X3955659Y-6650080D02*
X3946135Y-6659604D01*
X3946135Y-6659604D02*
X3936611Y-6650080D01*
X3936611Y-6650080D02*
X3946135Y-6640556D01*
X3946135Y-6640556D02*
X3946135Y-6659604D01*
X4079468Y-6459604D02*
X4098516Y-6459604D01*
X4098516Y-6459604D02*
X4117564Y-6469128D01*
X4117564Y-6469128D02*
X4127087Y-6478651D01*
X4127087Y-6478651D02*
X4136611Y-6497699D01*
X4136611Y-6497699D02*
X4146135Y-6535794D01*
X4146135Y-6535794D02*
X4146135Y-6583413D01*
X4146135Y-6583413D02*
X4136611Y-6621508D01*
X4136611Y-6621508D02*
X4127087Y-6640556D01*
X4127087Y-6640556D02*
X4117564Y-6650080D01*
X4117564Y-6650080D02*
X4098516Y-6659604D01*
X4098516Y-6659604D02*
X4079468Y-6659604D01*
X4079468Y-6659604D02*
X4060421Y-6650080D01*
X4060421Y-6650080D02*
X4050897Y-6640556D01*
X4050897Y-6640556D02*
X4041373Y-6621508D01*
X4041373Y-6621508D02*
X4031849Y-6583413D01*
X4031849Y-6583413D02*
X4031849Y-6535794D01*
X4031849Y-6535794D02*
X4041373Y-6497699D01*
X4041373Y-6497699D02*
X4050897Y-6478651D01*
X4050897Y-6478651D02*
X4060421Y-6469128D01*
X4060421Y-6469128D02*
X4079468Y-6459604D01*
X4212802Y-6459604D02*
X4336611Y-6459604D01*
X4336611Y-6459604D02*
X4269945Y-6535794D01*
X4269945Y-6535794D02*
X4298516Y-6535794D01*
X4298516Y-6535794D02*
X4317564Y-6545318D01*
X4317564Y-6545318D02*
X4327088Y-6554842D01*
X4327088Y-6554842D02*
X4336611Y-6573889D01*
X4336611Y-6573889D02*
X4336611Y-6621508D01*
X4336611Y-6621508D02*
X4327088Y-6640556D01*
X4327088Y-6640556D02*
X4317564Y-6650080D01*
X4317564Y-6650080D02*
X4298516Y-6659604D01*
X4298516Y-6659604D02*
X4241373Y-6659604D01*
X4241373Y-6659604D02*
X4222326Y-6650080D01*
X4222326Y-6650080D02*
X4212802Y-6640556D01*
X4527088Y-6659604D02*
X4412802Y-6659604D01*
X4469945Y-6659604D02*
X4469945Y-6459604D01*
X4469945Y-6459604D02*
X4450897Y-6488175D01*
X4450897Y-6488175D02*
X4431849Y-6507223D01*
X4431849Y-6507223D02*
X4412802Y-6516747D01*
X4708040Y-6459604D02*
X4612802Y-6459604D01*
X4612802Y-6459604D02*
X4603278Y-6554842D01*
X4603278Y-6554842D02*
X4612802Y-6545318D01*
X4612802Y-6545318D02*
X4631849Y-6535794D01*
X4631849Y-6535794D02*
X4679469Y-6535794D01*
X4679469Y-6535794D02*
X4698516Y-6545318D01*
X4698516Y-6545318D02*
X4708040Y-6554842D01*
X4708040Y-6554842D02*
X4717564Y-6573889D01*
X4717564Y-6573889D02*
X4717564Y-6621508D01*
X4717564Y-6621508D02*
X4708040Y-6640556D01*
X4708040Y-6640556D02*
X4698516Y-6650080D01*
X4698516Y-6650080D02*
X4679469Y-6659604D01*
X4679469Y-6659604D02*
X4631849Y-6659604D01*
X4631849Y-6659604D02*
X4612802Y-6650080D01*
X4612802Y-6650080D02*
X4603278Y-6640556D01*
X4793754Y-6459604D02*
X4793754Y-6497699D01*
X4869945Y-6459604D02*
X4869945Y-6497699D01*
X5165183Y-6735794D02*
X5155659Y-6726270D01*
X5155659Y-6726270D02*
X5136611Y-6697699D01*
X5136611Y-6697699D02*
X5127088Y-6678651D01*
X5127088Y-6678651D02*
X5117564Y-6650080D01*
X5117564Y-6650080D02*
X5108040Y-6602461D01*
X5108040Y-6602461D02*
X5108040Y-6564366D01*
X5108040Y-6564366D02*
X5117564Y-6516747D01*
X5117564Y-6516747D02*
X5127088Y-6488175D01*
X5127088Y-6488175D02*
X5136611Y-6469128D01*
X5136611Y-6469128D02*
X5155659Y-6440556D01*
X5155659Y-6440556D02*
X5165183Y-6431032D01*
X5222326Y-6459604D02*
X5346135Y-6459604D01*
X5346135Y-6459604D02*
X5279469Y-6535794D01*
X5279469Y-6535794D02*
X5308040Y-6535794D01*
X5308040Y-6535794D02*
X5327088Y-6545318D01*
X5327088Y-6545318D02*
X5336611Y-6554842D01*
X5336611Y-6554842D02*
X5346135Y-6573889D01*
X5346135Y-6573889D02*
X5346135Y-6621508D01*
X5346135Y-6621508D02*
X5336611Y-6640556D01*
X5336611Y-6640556D02*
X5327088Y-6650080D01*
X5327088Y-6650080D02*
X5308040Y-6659604D01*
X5308040Y-6659604D02*
X5250897Y-6659604D01*
X5250897Y-6659604D02*
X5231850Y-6650080D01*
X5231850Y-6650080D02*
X5222326Y-6640556D01*
X5584231Y-6659604D02*
X5584231Y-6459604D01*
X5669945Y-6659604D02*
X5669945Y-6554842D01*
X5669945Y-6554842D02*
X5660421Y-6535794D01*
X5660421Y-6535794D02*
X5641373Y-6526270D01*
X5641373Y-6526270D02*
X5612802Y-6526270D01*
X5612802Y-6526270D02*
X5593754Y-6535794D01*
X5593754Y-6535794D02*
X5584231Y-6545318D01*
X5793754Y-6659604D02*
X5774707Y-6650080D01*
X5774707Y-6650080D02*
X5765183Y-6640556D01*
X5765183Y-6640556D02*
X5755659Y-6621508D01*
X5755659Y-6621508D02*
X5755659Y-6564366D01*
X5755659Y-6564366D02*
X5765183Y-6545318D01*
X5765183Y-6545318D02*
X5774707Y-6535794D01*
X5774707Y-6535794D02*
X5793754Y-6526270D01*
X5793754Y-6526270D02*
X5822326Y-6526270D01*
X5822326Y-6526270D02*
X5841373Y-6535794D01*
X5841373Y-6535794D02*
X5850897Y-6545318D01*
X5850897Y-6545318D02*
X5860421Y-6564366D01*
X5860421Y-6564366D02*
X5860421Y-6621508D01*
X5860421Y-6621508D02*
X5850897Y-6640556D01*
X5850897Y-6640556D02*
X5841373Y-6650080D01*
X5841373Y-6650080D02*
X5822326Y-6659604D01*
X5822326Y-6659604D02*
X5793754Y-6659604D01*
X5974707Y-6659604D02*
X5955659Y-6650080D01*
X5955659Y-6650080D02*
X5946135Y-6631032D01*
X5946135Y-6631032D02*
X5946135Y-6459604D01*
X6127088Y-6650080D02*
X6108040Y-6659604D01*
X6108040Y-6659604D02*
X6069945Y-6659604D01*
X6069945Y-6659604D02*
X6050897Y-6650080D01*
X6050897Y-6650080D02*
X6041373Y-6631032D01*
X6041373Y-6631032D02*
X6041373Y-6554842D01*
X6041373Y-6554842D02*
X6050897Y-6535794D01*
X6050897Y-6535794D02*
X6069945Y-6526270D01*
X6069945Y-6526270D02*
X6108040Y-6526270D01*
X6108040Y-6526270D02*
X6127088Y-6535794D01*
X6127088Y-6535794D02*
X6136611Y-6554842D01*
X6136611Y-6554842D02*
X6136611Y-6573889D01*
X6136611Y-6573889D02*
X6041373Y-6592937D01*
X6212802Y-6650080D02*
X6231850Y-6659604D01*
X6231850Y-6659604D02*
X6269945Y-6659604D01*
X6269945Y-6659604D02*
X6288992Y-6650080D01*
X6288992Y-6650080D02*
X6298516Y-6631032D01*
X6298516Y-6631032D02*
X6298516Y-6621508D01*
X6298516Y-6621508D02*
X6288992Y-6602461D01*
X6288992Y-6602461D02*
X6269945Y-6592937D01*
X6269945Y-6592937D02*
X6241373Y-6592937D01*
X6241373Y-6592937D02*
X6222326Y-6583413D01*
X6222326Y-6583413D02*
X6212802Y-6564366D01*
X6212802Y-6564366D02*
X6212802Y-6554842D01*
X6212802Y-6554842D02*
X6222326Y-6535794D01*
X6222326Y-6535794D02*
X6241373Y-6526270D01*
X6241373Y-6526270D02*
X6269945Y-6526270D01*
X6269945Y-6526270D02*
X6288992Y-6535794D01*
X6365183Y-6735794D02*
X6374707Y-6726270D01*
X6374707Y-6726270D02*
X6393754Y-6697699D01*
X6393754Y-6697699D02*
X6403278Y-6678651D01*
X6403278Y-6678651D02*
X6412802Y-6650080D01*
X6412802Y-6650080D02*
X6422326Y-6602461D01*
X6422326Y-6602461D02*
X6422326Y-6564366D01*
X6422326Y-6564366D02*
X6412802Y-6516747D01*
X6412802Y-6516747D02*
X6403278Y-6488175D01*
X6403278Y-6488175D02*
X6393754Y-6469128D01*
X6393754Y-6469128D02*
X6374707Y-6440556D01*
X6374707Y-6440556D02*
X6365183Y-6431032D01*
D10*
X1540120Y-6782120D02*
X1540120Y-6882120D01*
X1490120Y-6832120D02*
X1590120Y-6832120D01*
D11*
X1955659Y-6923604D02*
X1841373Y-6923604D01*
X1898516Y-6923604D02*
X1898516Y-6723604D01*
X1898516Y-6723604D02*
X1879468Y-6752175D01*
X1879468Y-6752175D02*
X1860421Y-6771223D01*
X1860421Y-6771223D02*
X1841373Y-6780747D01*
X2041373Y-6904556D02*
X2050897Y-6914080D01*
X2050897Y-6914080D02*
X2041373Y-6923604D01*
X2041373Y-6923604D02*
X2031849Y-6914080D01*
X2031849Y-6914080D02*
X2041373Y-6904556D01*
X2041373Y-6904556D02*
X2041373Y-6923604D01*
X2174706Y-6723604D02*
X2193754Y-6723604D01*
X2193754Y-6723604D02*
X2212802Y-6733128D01*
X2212802Y-6733128D02*
X2222325Y-6742651D01*
X2222325Y-6742651D02*
X2231849Y-6761699D01*
X2231849Y-6761699D02*
X2241373Y-6799794D01*
X2241373Y-6799794D02*
X2241373Y-6847413D01*
X2241373Y-6847413D02*
X2231849Y-6885508D01*
X2231849Y-6885508D02*
X2222325Y-6904556D01*
X2222325Y-6904556D02*
X2212802Y-6914080D01*
X2212802Y-6914080D02*
X2193754Y-6923604D01*
X2193754Y-6923604D02*
X2174706Y-6923604D01*
X2174706Y-6923604D02*
X2155659Y-6914080D01*
X2155659Y-6914080D02*
X2146135Y-6904556D01*
X2146135Y-6904556D02*
X2136611Y-6885508D01*
X2136611Y-6885508D02*
X2127087Y-6847413D01*
X2127087Y-6847413D02*
X2127087Y-6799794D01*
X2127087Y-6799794D02*
X2136611Y-6761699D01*
X2136611Y-6761699D02*
X2146135Y-6742651D01*
X2146135Y-6742651D02*
X2155659Y-6733128D01*
X2155659Y-6733128D02*
X2174706Y-6723604D01*
X2365183Y-6723604D02*
X2384230Y-6723604D01*
X2384230Y-6723604D02*
X2403278Y-6733128D01*
X2403278Y-6733128D02*
X2412802Y-6742651D01*
X2412802Y-6742651D02*
X2422325Y-6761699D01*
X2422325Y-6761699D02*
X2431849Y-6799794D01*
X2431849Y-6799794D02*
X2431849Y-6847413D01*
X2431849Y-6847413D02*
X2422325Y-6885508D01*
X2422325Y-6885508D02*
X2412802Y-6904556D01*
X2412802Y-6904556D02*
X2403278Y-6914080D01*
X2403278Y-6914080D02*
X2384230Y-6923604D01*
X2384230Y-6923604D02*
X2365183Y-6923604D01*
X2365183Y-6923604D02*
X2346135Y-6914080D01*
X2346135Y-6914080D02*
X2336611Y-6904556D01*
X2336611Y-6904556D02*
X2327087Y-6885508D01*
X2327087Y-6885508D02*
X2317564Y-6847413D01*
X2317564Y-6847413D02*
X2317564Y-6799794D01*
X2317564Y-6799794D02*
X2327087Y-6761699D01*
X2327087Y-6761699D02*
X2336611Y-6742651D01*
X2336611Y-6742651D02*
X2346135Y-6733128D01*
X2346135Y-6733128D02*
X2365183Y-6723604D01*
X2555659Y-6723604D02*
X2574706Y-6723604D01*
X2574706Y-6723604D02*
X2593754Y-6733128D01*
X2593754Y-6733128D02*
X2603278Y-6742651D01*
X2603278Y-6742651D02*
X2612802Y-6761699D01*
X2612802Y-6761699D02*
X2622325Y-6799794D01*
X2622325Y-6799794D02*
X2622325Y-6847413D01*
X2622325Y-6847413D02*
X2612802Y-6885508D01*
X2612802Y-6885508D02*
X2603278Y-6904556D01*
X2603278Y-6904556D02*
X2593754Y-6914080D01*
X2593754Y-6914080D02*
X2574706Y-6923604D01*
X2574706Y-6923604D02*
X2555659Y-6923604D01*
X2555659Y-6923604D02*
X2536611Y-6914080D01*
X2536611Y-6914080D02*
X2527087Y-6904556D01*
X2527087Y-6904556D02*
X2517564Y-6885508D01*
X2517564Y-6885508D02*
X2508040Y-6847413D01*
X2508040Y-6847413D02*
X2508040Y-6799794D01*
X2508040Y-6799794D02*
X2517564Y-6761699D01*
X2517564Y-6761699D02*
X2527087Y-6742651D01*
X2527087Y-6742651D02*
X2536611Y-6733128D01*
X2536611Y-6733128D02*
X2555659Y-6723604D01*
X2708040Y-6923604D02*
X2708040Y-6790270D01*
X2708040Y-6809318D02*
X2717564Y-6799794D01*
X2717564Y-6799794D02*
X2736611Y-6790270D01*
X2736611Y-6790270D02*
X2765183Y-6790270D01*
X2765183Y-6790270D02*
X2784230Y-6799794D01*
X2784230Y-6799794D02*
X2793754Y-6818842D01*
X2793754Y-6818842D02*
X2793754Y-6923604D01*
X2793754Y-6818842D02*
X2803278Y-6799794D01*
X2803278Y-6799794D02*
X2822325Y-6790270D01*
X2822325Y-6790270D02*
X2850897Y-6790270D01*
X2850897Y-6790270D02*
X2869944Y-6799794D01*
X2869944Y-6799794D02*
X2879468Y-6818842D01*
X2879468Y-6818842D02*
X2879468Y-6923604D01*
X2974706Y-6923604D02*
X2974706Y-6790270D01*
X2974706Y-6809318D02*
X2984230Y-6799794D01*
X2984230Y-6799794D02*
X3003278Y-6790270D01*
X3003278Y-6790270D02*
X3031849Y-6790270D01*
X3031849Y-6790270D02*
X3050897Y-6799794D01*
X3050897Y-6799794D02*
X3060421Y-6818842D01*
X3060421Y-6818842D02*
X3060421Y-6923604D01*
X3060421Y-6818842D02*
X3069944Y-6799794D01*
X3069944Y-6799794D02*
X3088992Y-6790270D01*
X3088992Y-6790270D02*
X3117563Y-6790270D01*
X3117563Y-6790270D02*
X3136611Y-6799794D01*
X3136611Y-6799794D02*
X3146135Y-6818842D01*
X3146135Y-6818842D02*
X3146135Y-6923604D01*
X3536611Y-6714080D02*
X3365183Y-6971223D01*
X3793754Y-6723604D02*
X3812802Y-6723604D01*
X3812802Y-6723604D02*
X3831849Y-6733128D01*
X3831849Y-6733128D02*
X3841373Y-6742651D01*
X3841373Y-6742651D02*
X3850897Y-6761699D01*
X3850897Y-6761699D02*
X3860421Y-6799794D01*
X3860421Y-6799794D02*
X3860421Y-6847413D01*
X3860421Y-6847413D02*
X3850897Y-6885508D01*
X3850897Y-6885508D02*
X3841373Y-6904556D01*
X3841373Y-6904556D02*
X3831849Y-6914080D01*
X3831849Y-6914080D02*
X3812802Y-6923604D01*
X3812802Y-6923604D02*
X3793754Y-6923604D01*
X3793754Y-6923604D02*
X3774706Y-6914080D01*
X3774706Y-6914080D02*
X3765183Y-6904556D01*
X3765183Y-6904556D02*
X3755659Y-6885508D01*
X3755659Y-6885508D02*
X3746135Y-6847413D01*
X3746135Y-6847413D02*
X3746135Y-6799794D01*
X3746135Y-6799794D02*
X3755659Y-6761699D01*
X3755659Y-6761699D02*
X3765183Y-6742651D01*
X3765183Y-6742651D02*
X3774706Y-6733128D01*
X3774706Y-6733128D02*
X3793754Y-6723604D01*
X3946135Y-6904556D02*
X3955659Y-6914080D01*
X3955659Y-6914080D02*
X3946135Y-6923604D01*
X3946135Y-6923604D02*
X3936611Y-6914080D01*
X3936611Y-6914080D02*
X3946135Y-6904556D01*
X3946135Y-6904556D02*
X3946135Y-6923604D01*
X4079468Y-6723604D02*
X4098516Y-6723604D01*
X4098516Y-6723604D02*
X4117564Y-6733128D01*
X4117564Y-6733128D02*
X4127087Y-6742651D01*
X4127087Y-6742651D02*
X4136611Y-6761699D01*
X4136611Y-6761699D02*
X4146135Y-6799794D01*
X4146135Y-6799794D02*
X4146135Y-6847413D01*
X4146135Y-6847413D02*
X4136611Y-6885508D01*
X4136611Y-6885508D02*
X4127087Y-6904556D01*
X4127087Y-6904556D02*
X4117564Y-6914080D01*
X4117564Y-6914080D02*
X4098516Y-6923604D01*
X4098516Y-6923604D02*
X4079468Y-6923604D01*
X4079468Y-6923604D02*
X4060421Y-6914080D01*
X4060421Y-6914080D02*
X4050897Y-6904556D01*
X4050897Y-6904556D02*
X4041373Y-6885508D01*
X4041373Y-6885508D02*
X4031849Y-6847413D01*
X4031849Y-6847413D02*
X4031849Y-6799794D01*
X4031849Y-6799794D02*
X4041373Y-6761699D01*
X4041373Y-6761699D02*
X4050897Y-6742651D01*
X4050897Y-6742651D02*
X4060421Y-6733128D01*
X4060421Y-6733128D02*
X4079468Y-6723604D01*
X4212802Y-6723604D02*
X4336611Y-6723604D01*
X4336611Y-6723604D02*
X4269945Y-6799794D01*
X4269945Y-6799794D02*
X4298516Y-6799794D01*
X4298516Y-6799794D02*
X4317564Y-6809318D01*
X4317564Y-6809318D02*
X4327088Y-6818842D01*
X4327088Y-6818842D02*
X4336611Y-6837889D01*
X4336611Y-6837889D02*
X4336611Y-6885508D01*
X4336611Y-6885508D02*
X4327088Y-6904556D01*
X4327088Y-6904556D02*
X4317564Y-6914080D01*
X4317564Y-6914080D02*
X4298516Y-6923604D01*
X4298516Y-6923604D02*
X4241373Y-6923604D01*
X4241373Y-6923604D02*
X4222326Y-6914080D01*
X4222326Y-6914080D02*
X4212802Y-6904556D01*
X4431849Y-6923604D02*
X4469945Y-6923604D01*
X4469945Y-6923604D02*
X4488992Y-6914080D01*
X4488992Y-6914080D02*
X4498516Y-6904556D01*
X4498516Y-6904556D02*
X4517564Y-6875985D01*
X4517564Y-6875985D02*
X4527088Y-6837889D01*
X4527088Y-6837889D02*
X4527088Y-6761699D01*
X4527088Y-6761699D02*
X4517564Y-6742651D01*
X4517564Y-6742651D02*
X4508040Y-6733128D01*
X4508040Y-6733128D02*
X4488992Y-6723604D01*
X4488992Y-6723604D02*
X4450897Y-6723604D01*
X4450897Y-6723604D02*
X4431849Y-6733128D01*
X4431849Y-6733128D02*
X4422326Y-6742651D01*
X4422326Y-6742651D02*
X4412802Y-6761699D01*
X4412802Y-6761699D02*
X4412802Y-6809318D01*
X4412802Y-6809318D02*
X4422326Y-6828366D01*
X4422326Y-6828366D02*
X4431849Y-6837889D01*
X4431849Y-6837889D02*
X4450897Y-6847413D01*
X4450897Y-6847413D02*
X4488992Y-6847413D01*
X4488992Y-6847413D02*
X4508040Y-6837889D01*
X4508040Y-6837889D02*
X4517564Y-6828366D01*
X4517564Y-6828366D02*
X4527088Y-6809318D01*
X4698516Y-6790270D02*
X4698516Y-6923604D01*
X4650897Y-6714080D02*
X4603278Y-6856937D01*
X4603278Y-6856937D02*
X4727088Y-6856937D01*
X4793754Y-6723604D02*
X4793754Y-6761699D01*
X4869945Y-6723604D02*
X4869945Y-6761699D01*
X5165183Y-6999794D02*
X5155659Y-6990270D01*
X5155659Y-6990270D02*
X5136611Y-6961699D01*
X5136611Y-6961699D02*
X5127088Y-6942651D01*
X5127088Y-6942651D02*
X5117564Y-6914080D01*
X5117564Y-6914080D02*
X5108040Y-6866461D01*
X5108040Y-6866461D02*
X5108040Y-6828366D01*
X5108040Y-6828366D02*
X5117564Y-6780747D01*
X5117564Y-6780747D02*
X5127088Y-6752175D01*
X5127088Y-6752175D02*
X5136611Y-6733128D01*
X5136611Y-6733128D02*
X5155659Y-6704556D01*
X5155659Y-6704556D02*
X5165183Y-6695032D01*
X5346135Y-6923604D02*
X5231850Y-6923604D01*
X5288992Y-6923604D02*
X5288992Y-6723604D01*
X5288992Y-6723604D02*
X5269945Y-6752175D01*
X5269945Y-6752175D02*
X5250897Y-6771223D01*
X5250897Y-6771223D02*
X5231850Y-6780747D01*
X5517564Y-6790270D02*
X5517564Y-6923604D01*
X5469945Y-6714080D02*
X5422326Y-6856937D01*
X5422326Y-6856937D02*
X5546135Y-6856937D01*
X5774707Y-6923604D02*
X5774707Y-6723604D01*
X5860421Y-6923604D02*
X5860421Y-6818842D01*
X5860421Y-6818842D02*
X5850897Y-6799794D01*
X5850897Y-6799794D02*
X5831850Y-6790270D01*
X5831850Y-6790270D02*
X5803278Y-6790270D01*
X5803278Y-6790270D02*
X5784230Y-6799794D01*
X5784230Y-6799794D02*
X5774707Y-6809318D01*
X5984230Y-6923604D02*
X5965183Y-6914080D01*
X5965183Y-6914080D02*
X5955659Y-6904556D01*
X5955659Y-6904556D02*
X5946135Y-6885508D01*
X5946135Y-6885508D02*
X5946135Y-6828366D01*
X5946135Y-6828366D02*
X5955659Y-6809318D01*
X5955659Y-6809318D02*
X5965183Y-6799794D01*
X5965183Y-6799794D02*
X5984230Y-6790270D01*
X5984230Y-6790270D02*
X6012802Y-6790270D01*
X6012802Y-6790270D02*
X6031850Y-6799794D01*
X6031850Y-6799794D02*
X6041373Y-6809318D01*
X6041373Y-6809318D02*
X6050897Y-6828366D01*
X6050897Y-6828366D02*
X6050897Y-6885508D01*
X6050897Y-6885508D02*
X6041373Y-6904556D01*
X6041373Y-6904556D02*
X6031850Y-6914080D01*
X6031850Y-6914080D02*
X6012802Y-6923604D01*
X6012802Y-6923604D02*
X5984230Y-6923604D01*
X6165183Y-6923604D02*
X6146135Y-6914080D01*
X6146135Y-6914080D02*
X6136611Y-6895032D01*
X6136611Y-6895032D02*
X6136611Y-6723604D01*
X6317564Y-6914080D02*
X6298516Y-6923604D01*
X6298516Y-6923604D02*
X6260421Y-6923604D01*
X6260421Y-6923604D02*
X6241373Y-6914080D01*
X6241373Y-6914080D02*
X6231850Y-6895032D01*
X6231850Y-6895032D02*
X6231850Y-6818842D01*
X6231850Y-6818842D02*
X6241373Y-6799794D01*
X6241373Y-6799794D02*
X6260421Y-6790270D01*
X6260421Y-6790270D02*
X6298516Y-6790270D01*
X6298516Y-6790270D02*
X6317564Y-6799794D01*
X6317564Y-6799794D02*
X6327088Y-6818842D01*
X6327088Y-6818842D02*
X6327088Y-6837889D01*
X6327088Y-6837889D02*
X6231850Y-6856937D01*
X6403278Y-6914080D02*
X6422326Y-6923604D01*
X6422326Y-6923604D02*
X6460421Y-6923604D01*
X6460421Y-6923604D02*
X6479469Y-6914080D01*
X6479469Y-6914080D02*
X6488992Y-6895032D01*
X6488992Y-6895032D02*
X6488992Y-6885508D01*
X6488992Y-6885508D02*
X6479469Y-6866461D01*
X6479469Y-6866461D02*
X6460421Y-6856937D01*
X6460421Y-6856937D02*
X6431850Y-6856937D01*
X6431850Y-6856937D02*
X6412802Y-6847413D01*
X6412802Y-6847413D02*
X6403278Y-6828366D01*
X6403278Y-6828366D02*
X6403278Y-6818842D01*
X6403278Y-6818842D02*
X6412802Y-6799794D01*
X6412802Y-6799794D02*
X6431850Y-6790270D01*
X6431850Y-6790270D02*
X6460421Y-6790270D01*
X6460421Y-6790270D02*
X6479469Y-6799794D01*
X6555659Y-6999794D02*
X6565183Y-6990270D01*
X6565183Y-6990270D02*
X6584231Y-6961699D01*
X6584231Y-6961699D02*
X6593754Y-6942651D01*
X6593754Y-6942651D02*
X6603278Y-6914080D01*
X6603278Y-6914080D02*
X6612802Y-6866461D01*
X6612802Y-6866461D02*
X6612802Y-6828366D01*
X6612802Y-6828366D02*
X6603278Y-6780747D01*
X6603278Y-6780747D02*
X6593754Y-6752175D01*
X6593754Y-6752175D02*
X6584231Y-6733128D01*
X6584231Y-6733128D02*
X6565183Y-6704556D01*
X6565183Y-6704556D02*
X6555659Y-6695032D01*
M02*
